<svg width="467" height="503" viewBox="0 0 467 503" fill="none" xmlns="http://www.w3.org/2000/svg">
<path d="M127.001 493.526C83.1636 507.667 63.366 483.627 53.4671 479.385C35.0836 432.719 69.0224 422.82 111.446 383.225C153.869 343.63 151.041 172.522 255.686 107.473C360.33 42.4234 446.591 83.4327 463.561 132.927C480.53 182.421 419.723 264.44 378.714 313.934C337.704 363.428 371.643 408.679 387.198 422.82C402.754 436.962 435.278 469.486 387.198 493.526C339.118 517.566 343.361 479.385 266.999 493.526C190.636 507.667 170.839 479.385 127.001 493.526Z" fill="#49CE96"/>
<circle cx="426.44" cy="166.159" r="35.3529" fill="white"/>
<circle cx="440.935" cy="165.805" r="20.8582" fill="black"/>
<circle cx="454.369" cy="158.735" r="5.30293" fill="white"/>
<rect x="152.155" y="18.3835" width="221.309" height="14.3983" transform="rotate(20.3329 152.155 18.3835)" fill="#49CE96"/>
<rect x="226.568" y="10.606" width="221.309" height="14.905" transform="rotate(23.2417 226.568 10.606)" fill="#49CE96"/>
<ellipse cx="142.91" cy="21.2116" rx="19.0906" ry="18.3835" fill="#49CE96"/>
<ellipse cx="226.343" cy="18.3835" rx="19.0906" ry="18.3835" fill="#49CE96"/>
<path fill-rule="evenodd" clip-rule="evenodd" d="M409.324 449.982C402.861 450.723 396.306 451.103 389.673 451.103C281.505 451.103 193.818 350.12 193.818 225.551C193.818 203.238 196.632 181.681 201.872 161.326C174.861 202.226 160.499 252.475 148.179 295.576C136.924 334.949 127.375 368.358 111.446 383.225C101.976 392.064 92.9294 399.422 84.7928 406.041C56.478 429.072 39.1871 443.136 53.4671 479.385C55.3758 480.203 57.6526 481.757 60.3987 483.632C71.8945 491.479 91.6164 504.941 127.001 493.526C147.634 486.871 162.941 489.613 181.327 492.906C202.005 496.61 226.577 501.012 266.999 493.526C305.038 486.482 323.076 492.421 337.543 497.185C352.118 501.985 363.069 505.591 387.198 493.526C414.055 480.098 415.762 464.022 409.324 449.982Z" fill="#21B577"/>
<path fill-rule="evenodd" clip-rule="evenodd" d="M409.324 449.982C402.861 450.723 396.306 451.103 389.673 451.103C281.505 451.103 193.818 350.12 193.818 225.551C193.818 203.238 196.632 181.681 201.872 161.326C174.861 202.226 160.499 252.475 148.179 295.576C136.924 334.949 127.375 368.358 111.446 383.225C101.976 392.064 92.9294 399.422 84.7928 406.041C56.478 429.072 39.1871 443.136 53.4671 479.385C55.3758 480.203 57.6526 481.757 60.3987 483.632C71.8945 491.479 91.6164 504.941 127.001 493.526C147.634 486.871 162.941 489.613 181.327 492.906C202.005 496.61 226.577 501.012 266.999 493.526C305.038 486.482 323.076 492.421 337.543 497.185C352.118 501.985 363.069 505.591 387.198 493.526C414.055 480.098 415.762 464.022 409.324 449.982Z" fill="#21B577"/>
<path fill-rule="evenodd" clip-rule="evenodd" d="M51.7185 475.511C66.3932 480.142 86.2996 482.439 113.572 475.475C139.634 468.819 158.97 471.561 182.195 474.854C208.316 478.558 239.355 482.96 290.415 475.475C338.467 468.431 361.252 474.37 379.527 479.133C387.489 481.209 394.596 483.061 402.563 483.519C398.742 487.089 393.642 490.567 387.008 493.884C362.88 505.948 351.928 502.342 337.353 497.543C322.886 492.779 304.848 486.84 266.809 493.884C226.387 501.369 201.815 496.968 181.137 493.264C162.751 489.97 147.444 487.228 126.811 493.884C91.4264 505.298 71.7046 491.836 60.2088 483.989C57.4626 482.115 55.1859 480.561 53.2772 479.743C52.7079 478.298 52.1888 476.888 51.7185 475.511Z" fill="#1D9260"/>
<path d="M153.352 209.289C167.494 157.532 229.479 109.712 258.704 92.271C219.816 92.271 185.17 137.169 163.958 154.846C142.747 172.522 72.0408 162.977 93.2525 190.198C114.464 217.42 140.272 178.532 153.352 190.198C166.433 201.865 141.686 209.289 107.394 238.632C73.1013 267.975 48.3543 257.723 30.6779 266.914C61.4349 291.661 94.3131 261.258 122.595 266.914C150.878 272.571 120.474 294.136 72.0408 304.742C23.6073 315.348 -88.8149 321.358 -22.705 317.822C43.4049 314.287 82.6466 366.256 107.394 345.044C132.141 323.832 135.676 273.985 153.352 209.289Z" fill="#EE8627"/>
</svg>
