<svg width="1920" height="596" viewBox="0 0 1920 596" fill="none" xmlns="http://www.w3.org/2000/svg">
<path d="M287.98 10.2063C159.683 0.167156 51.809 76.9663 13.9091 116.621L1 599H1919V180.871C1878.95 215.004 1778.19 277.247 1695.57 253.153C1592.3 223.035 1448.31 82.4879 1363.91 42.3315C1279.5 2.17504 1098.28 -11.3778 995.004 10.2063C891.731 31.7903 741.786 116.621 644.471 116.621C547.156 116.621 448.351 22.7552 287.98 10.2063Z" fill="#D57B54"/>
<path d="M1437.75 258.795C1600.87 180.748 1827.21 226.276 1920 258.795V599H0V82.189C275.856 75.6851 297.345 239.283 388.797 220.272C480.25 201.261 652.16 281.809 807.08 341.345C961.999 400.881 1233.86 356.354 1437.75 258.795Z" fill="#FD9B40"/>
<path d="M253.973 416.265C126.638 374.035 29.9397 404.217 1 425.3V596H1920V427.08C1784.45 445.944 1489.4 475.614 1375.63 444.798C1233.43 406.278 860.208 444.798 771.394 467.149C682.579 489.501 413.141 469.052 253.973 416.265Z" fill="#FFB762"/>
</svg>
